<svg xmlns="http://www.w3.org/2000/svg" viewBox="0 0 78.3 48.5"><path d="M18.5 14.8a.2.2 0 0 1-.2.2 5.8 5.8 0 0 0-1.2 1.4 1.3 1.3 0 0 0-.3 1l.4 1.8 18.7-5a6.1 6.1 0 0 0-2.1 2 4.3 4.3 0 0 0 0 2.7l2 7.2c1 4.3 1.1 9-.8 11.5a13 13 0 0 1-8.5 5.6 84.5 84.5 0 0 1-9.4 1.3l3-3a9.8 9.8 0 0 0 6 .7c3.1-.8 4.4-1.6 5.4-3.7.7-1.3.7-3.6-.1-6.8l-.9-3.4-2.5-9.6-10.1 2.7c.7 2.7 1.3 5.9 1.3 6A17.6 17.6 0 0 1 18 40c-2 3.4-6 7-9.2 7.8-2.7.7-8.2.6-8.2.6l3.3-2.8a5 5 0 0 0 4.9 1.2c3-.8 4.7-3.5 5.6-6.4 1.5-4.6.1-9.3-1-13.4l-1.1-4.2L4.2 25A3.9 3.9 0 0 0 2 26.5a7 7 0 0 0-1 2.2l-.7.2-.3-5.1 11.7-3.2-.4-1.7a1.3 1.3 0 0 0-.9-.8 5.7 5.7 0 0 0-1.7-.5.2.2 0 0 1-.3-.2c0-.1 0-.2.2-.3l9.6-2.5c.2 0 .3 0 .3.2zM74.9 4.6a33.8 33.8 0 0 0-1.5 4.3l-1.2 6a17 17 0 0 0 5.3-.7 47.5 47.5 0 0 1-5.8 2.8l-2 6c-1 2.6-1.8 5.3-4.1 7.5a16.2 16.2 0 0 1-7.7 4.4 30.7 30.7 0 0 1-9.5.7l4-3.8c1.6.9 4 2 6.5 1.4 2.8-.8 4.2-2.8 5.2-4.6s1.5-3.4 2.2-6.3c.3-1 .5-3.3.6-4.3-2 0-4-.7-6.8-1.3a25.5 25.5 0 0 0-6.3-.5 31.5 31.5 0 0 1-3.5 4 40.8 40.8 0 0 1-7.2 5.8c2.6-2.7 6-7 7.2-10.3a26.6 26.6 0 0 0 1.3-8.6L78.3 0A16.7 16.7 0 0 0 75 4.6zM57.8 7.9a27.8 27.8 0 0 1-3 7c2-1 5.1-2.2 7.5-2a19.7 19.7 0 0 1 5.1.8 43.9 43.9 0 0 1 .7-5A34.3 34.3 0 0 1 69.3 5z"/></svg>
