<svg xmlns="http://www.w3.org/2000/svg" viewBox="0 0 69.7 32.1"><path d="M26.2 6L29 9.3a78.5 78.5 0 0 1-3.9 15.8c-1.5 4-2.9 5.5-5 5.5a5.8 5.8 0 0 1-4-1.8 20.1 20.1 0 0 1-2.7-3.5l2.2-1.6c1.7 3 2.8 4.1 4.1 4.1s1.8-.8 3.2-4.5A70.6 70.6 0 0 0 26.2 10l-1-1.2-8 2.1c-3 8.8-7.1 14.4-15.4 21L0 30c7-5.3 11-10.3 14.2-18l-9.5 2.4-.5-2.6 11-2.8A68.8 68.8 0 0 0 17.4 0l2.6.7c-.5 2.4-1.1 5-1.8 7.4zM66.5 26a43 43 0 0 0-6.1-3.8 41.1 41.1 0 0 1-15 10L44 29.6a42.5 42.5 0 0 0 13.8-8.8l-1.3-.6-1.8-.9-3.2-1.2 1.1-2.3a66.2 66.2 0 0 1 7.1 3 76.2 76.2 0 0 0 6.8-9.3l-.6-.4-12.6 4.3a34.1 34.1 0 0 1-6.3 5.5l-1.7-2.1c5.8-4 10-9.4 13-16.8l2.5 1a31.6 31.6 0 0 1-4.6 8.8L67 6.2l2.7 2.6a60.7 60.7 0 0 1-7.5 11.3 32.6 32.6 0 0 1 5.6 3.6z"/></svg>
