<svg xmlns="http://www.w3.org/2000/svg" viewBox="0 0 50 42.1"><path d="M22.7 16.5a5.5 5.5 0 0 0-.5 2c-.2 1.8-.3 3.5-.8 6.4-.5 4-1.1 7-1.6 9.2-1 4.5-2.3 6.2-4.4 6.2-.7 0-.9-.3-1-1.5a5.7 5.7 0 0 0-.8-2.6L12 34a1.1 1.1 0 0 1-.4-1c0-.2.2-.3.3-.3a3.6 3.6 0 0 1 .9.4 15.3 15.3 0 0 0 3 1.4c.4 0 1-.6 1.4-2.5.8-3.1 1.2-6.4 1.6-9.2a68.7 68.7 0 0 0 .9-8.2c0-.5 0-.6-.4-.6a12.1 12.1 0 0 0-1.4.1 47.6 47.6 0 0 0-5 1 64.1 64.1 0 0 1-4 14.9 26.3 26.3 0 0 1-7.5 10.4c-.4.4-.7.6-1 .6S0 41 0 40.6s.2-.5.5-1a39.6 39.6 0 0 0 6-11 74 74 0 0 0 3.3-13l-3.7 1.3a3 3 0 0 0-1.3.8 1.2 1.2 0 0 1-.8.4c-.4 0-1.2-.7-2-1.9A6.3 6.3 0 0 1 1 13c0-1 .2-1.6.4-1.6s.3.2.4.4c1 1.3 1.8 2 2.6 2a17.1 17.1 0 0 0 1.9-.1l4-.8a63.2 63.2 0 0 0 .7-7.6 2.6 2.6 0 0 0-.3-1.4A3.1 3.1 0 0 0 9.6 3c-.6-.3-.8-.3-.8-.6a1.4 1.4 0 0 1 .4-.8 1.7 1.7 0 0 1 1.3-.6 6 6 0 0 1 3.2 1.7A2.7 2.7 0 0 1 14.8 5a2.4 2.4 0 0 1-.5 1.6 3.7 3.7 0 0 0-.5 1.5l-.7 4.4 5.1-1a1.5 1.5 0 0 0 1-.5c.2-.3.5-.6.8-.6.5 0 1 .4 2 1.6s1.3 2.1 1.4 2.8a2.4 2.4 0 0 1-.7 1.7zM45.4 7a1.5 1.5 0 0 0 .8-.7 1 1 0 0 1 1-.5 2.4 2.4 0 0 1 1.2.8c1.1 1.5 1.7 2.5 1.7 3.5a1.9 1.9 0 0 1-.7 1.5 2.6 2.6 0 0 0-1 1.2c-1.6 4.5-2.7 7.2-4 9.7 2.3 2.5 2.8 4.5 2.8 6.1 0 1.3-.6 2.6-1.5 2.6-.4 0-1-.5-1.4-1.3a36.8 36.8 0 0 0-1.6-3.6 38.4 38.4 0 0 1-14 15.6 2 2 0 0 1-.5.2c-.2 0-.4-.1-.4-.4a.9.9 0 0 1 .4-.8c4.4-4.2 7.9-8.2 12.6-17.6a23.2 23.2 0 0 0-3.6-4c-.3-.3-.5-.4-.5-.6 0-.4.2-.6.5-.5a6.6 6.6 0 0 1 .7.2 14.1 14.1 0 0 1 4.2 2A104.4 104.4 0 0 0 46 10.3a1.8 1.8 0 0 0 0-.6c0-.1 0-.2-.2-.2a30 30 0 0 0-3 1 6.9 6.9 0 0 1-1.6.4 2.9 2.9 0 0 1-1.7-.7 73 73 0 0 1-5 9.5 24.8 24.8 0 0 1-4.5 5.4l-.4.3c-.1 0-.4-.2-.4-.5a1 1 0 0 1 .3-.7A84.5 84.5 0 0 0 38 3.7a2 2 0 0 0-.2-1 4.5 4.5 0 0 0-1.1-1.3c-.3-.2-.4-.3-.4-.5 0-.4.7-.9 1.1-.9a4.5 4.5 0 0 1 3 1.6c1.1 1 1.5 1.8 1.5 2.7a1.8 1.8 0 0 1-.5 1.5 3 3 0 0 0-.7.9l-.7 1.7a22.9 22.9 0 0 0 5.3-1.3z"/></svg>
