<svg xmlns="http://www.w3.org/2000/svg" viewBox="0 0 76.9 17.9"><path fill="white" d="M13 5.2a25.6 25.6 0 0 1-2.2 4.7c1 .6 1.8 1.3 1.8 2 0 .5-.2 1-.8 1s-1-.6-2-1.4a17.1 17.1 0 0 1-7.4 6c-1 .3-1.3-.5-.5-1a18.3 18.3 0 0 0 6.6-6A66 66 0 0 0 5 8.8c-.7-.4-.4-1.1.4-1a25.7 25.7 0 0 1 4 1.3 17.2 17.2 0 0 0 1.8-5c0-.3-.1-.4-.5-.3-1.6.2-3 .7-3.8.7A2 2 0 0 1 5.7 4 20.2 20.2 0 0 1 1 13c-.6.6-1.3 0-.9-.6 1.9-3 3.5-6.2 3.7-8.9A2 2 0 0 0 3 1.3C2.6.8 2.4.6 2.4.4S2.7 0 3 0C4.1 0 6 1 6 1.9v.9a5.3 5.3 0 0 0 1 .1 21.2 21.2 0 0 0 3.1-.3c.7-.2 1-.6 1.4-.6.7 0 2.1 1.2 2.1 1.6s-.4.9-.7 1.6zM21.6 8.5c1.3 0 6.7-.6 8.4-.8 2-.2 2.6-.5 3.6-.5s2.5.6 2.5 1.6c0 .4-.2.7-1 .7l-3.2-.1c-1.8 0-7 .6-8.2.8a19.7 19.7 0 0 1-2.6.4c-1 0-2.3-1.5-2.3-2.7 0-.4.3-.5.7-.3a4 4 0 0 0 2 .9zM42.1 13.4a2.3 2.3 0 0 0 2 0c4.1-1.8 8.2-5.3 11-8.2a.5.5 0 0 1 .8.7 31.9 31.9 0 0 1-10.6 9 5 5 0 0 1-2.1 1 3.6 3.6 0 0 1-3-2.8c0-.4.3-.6.6-.4l1.3.7zm-.8-10.7A7 7 0 0 1 45.5 5c.6.8.7 2.1 0 2.4-.6.3-1 .1-2-1A17.4 17.4 0 0 0 41 3.6c-.6-.5-.3-1 .4-1zM68.6 10.6c-.1 1-.3 1.4-.7 1.4s-.5-.4-.6-1.6l-.7-9c0-.4 0-.7.3-.8a3 3 0 0 1 1.6-.3c.6 0 1 0 1 .6-.2 2.1-.7 7.9-1 9.7zm.9 5.7a1.6 1.6 0 0 1-1.6 1.6 1.4 1.4 0 0 1-1.3-1.4 1.5 1.5 0 0 1 1.5-1.6 1.4 1.4 0 0 1 1.4 1.4zM76 10.6c-.1 1-.3 1.4-.7 1.4s-.5-.4-.6-1.6l-.7-9c0-.4 0-.7.3-.8a3 3 0 0 1 1.6-.3c.6 0 1 0 1 .6l-.9 9.7zm.9 5.7a1.6 1.6 0 0 1-1.6 1.6 1.4 1.4 0 0 1-1.3-1.4 1.5 1.5 0 0 1 1.5-1.6 1.4 1.4 0 0 1 1.3 1.4z"/></svg>
