<svg xmlns="http://www.w3.org/2000/svg" viewBox="0 0 109 17.4"><path fill="white" d="M20.5 3.3a19.3 19.3 0 0 0-1.4 2.1l-1.6 3a9.8 9.8 0 0 0 3 .5 26.7 26.7 0 0 1-3.5.7l-2 3a9.8 9.8 0 0 1-3.3 3.5 9.3 9.3 0 0 1-4.8 1.3 17.3 17.3 0 0 1-5.4-1l2.8-1.5a5 5 0 0 0 3.3 1.7 4.7 4.7 0 0 0 3.5-1.8 12 12 0 0 0 2.2-3.1l1-2.2a21.1 21.1 0 0 1-3.6-1.8 14.6 14.6 0 0 0-3.4-1.1 17.7 17.7 0 0 1-2.5 1.6A23.6 23.6 0 0 1 0 10.3a19.1 19.1 0 0 0 5.4-4.5 15.3 15.3 0 0 0 2-4.5H23a9.6 9.6 0 0 0-2.6 2zm-9.8-.7A15.5 15.5 0 0 1 8 6a10.4 10.4 0 0 1 4.4 0 11.6 11.6 0 0 1 2.7 1.2 23.9 23.9 0 0 1 1-2.7 19.9 19.9 0 0 1 1.3-2zM42 4.6l-.1.2a3.6 3.6 0 0 0-1 .7 3.1 3.1 0 0 0-1 1.4V7a7 7 0 0 1-2.3 3 7.7 7.7 0 0 1-2.6 1.2 6.2 6.2 0 0 1-1.8 4 7 7 0 0 1-4.9 2h-2.8a.2.2 0 0 1-.2-.2.1.1 0 0 1 0-.2l1.4-1a.2.2 0 0 1 .2 0 3.3 3.3 0 0 0 1.4.6 4.1 4.1 0 0 0 2.8-1 5.5 5.5 0 0 0 1.3-3.8 7.1 7.1 0 0 0-.4-3.3 2.6 2.6 0 0 0-1.7-1.2.2.2 0 0 1-.2-.2.2.2 0 0 1 .2-.1h.3a8.2 8.2 0 0 1 2.3.3c1.3.3 1.9 1.8 2 3.1a6.5 6.5 0 0 0 2.2-2 5.2 5.2 0 0 0 .4-2.5h-10a1.4 1.4 0 0 0-.9.3 2.9 2.9 0 0 0-.6.8.2.2 0 0 1-.2 0h-.3-.1c-.1 0 0 0 0-.1l.5-2.2a.2.2 0 0 1 .1-.1h15.8a.2.2 0 0 1 .2.1zM52.1 6.8a1.6 1.6 0 1 1-1.5-1.5A1.5 1.5 0 0 1 52 6.8zM67.1 6.8a1.6 1.6 0 1 1-1.5-1.5A1.5 1.5 0 0 1 67 6.8zM82.1 6.8a1.6 1.6 0 1 1-1.5-1.5A1.5 1.5 0 0 1 82 6.8zM91.4.1A12.9 12.9 0 0 1 97 2.3a9.4 9.4 0 0 1 3.1 2.9l-3.7 1.4C95 3 91 .5 88.8 0a14.6 14.6 0 0 1 2.6.1zM109 6.7c0 3.7-2.9 7-6.7 8.6a43.9 43.9 0 0 1-9.5 2.2l-1.4-4a35.6 35.6 0 0 0 8.5-.4c5.8-1.3 8.3-3.8 8.3-6 0-3.8-3.2-3.6-3.2-3.6l2.3-1.2s1.7.7 1.7 4.4z"/></svg>
