<svg xmlns="http://www.w3.org/2000/svg" viewBox="0 0 118.5 30.1"><path fill="white" d="M1.8 10.4A35.5 35.5 0 0 1 3 16.1v.3l-1.6 1.8-.2-.2A36 36 0 0 0 0 12.3V12l1.6-1.6zM9 11A57.5 57.5 0 0 1 7 21.7a23 23 0 0 1-3.6 7.6l-.3.2-.2-.2-1.6-2.4a19 19 0 0 0 3.8-7.1A45.2 45.2 0 0 0 7.1 9l.1-.1L9 10.6zM4.6 8.6A30.2 30.2 0 0 1 5.8 14v.3l-1.6 1.8L4 16a39.2 39.2 0 0 0-1.3-5.6V10l1.6-1.6zM25 6.7a1.6 1.6 0 0 1 .2.6 2.8 2.8 0 0 1-.1.6 88.2 88.2 0 0 1-2.4 9.5l1.5 3v.4l-1.5 3.8h-.1l-1.4-3.1a30.8 30.8 0 0 1-5 8.3l-.3.2c-.1 0-.2 0-.4-.3l-1.7-2.8a27.7 27.7 0 0 0 5.8-8.8 31.5 31.5 0 0 0-1.7-2.7v-.3l1.3-3.3h.1l1.6 2.4a47 47 0 0 0 1.4-5.5h-3a61.8 61.8 0 0 1-3 8c-.3.5-.4.5-.6 0L14 14.4A49.1 49.1 0 0 0 18.9 0L19 0l2 1.7v.4l-.5 2.2h2L24 4zM35.7 14.4v1.8a27.4 27.4 0 0 0 1.2-3.4h-6.4l-.1-.2V8.6l1.8.1h5.3l1.3-.1.8 2.5a1.4 1.4 0 0 1 .1.5 1.5 1.5 0 0 1 0 .5l-2.4 6.4c-.2.5-.3.4-.5.2l-1.2-1.8a36 36 0 0 1-.5 6.3 16.6 16.6 0 0 1-2.2 6l-.3.3-.2-.2-1.8-2a11.1 11.1 0 0 0 2.3-4.5c.5-2 .6-3.9.6-8.3l.1-.2h2zM53.1 17.9h-6.7L44 18v-5.5l2.2.1h9l.1.1V18zM68.1 17.9h-6.7l-2.2.1-.1-.3v-5l.1-.2 2.1.1h9l.1.1V18zM83.1 17.9h-6.7l-2.2.1-.1-.3v-5l.1-.2 2.2.1h9V18zM89.4 7.8L90.8 4l.2-.1a25.4 25.4 0 0 1 3 4.8v.4l-1.6 4.2h-.1a32.6 32.6 0 0 0-3-5.3zm11.6 2.9a4.8 4.8 0 0 1 0 .6 1.4 1.4 0 0 1 0 .6A48.1 48.1 0 0 1 91 28h-.1l-1.4-4.7V23c3.8-3.4 7.6-9.5 10.7-17.8zM109.7 25c0 2-.7 3.4-1.4 3.4s-1.5-1.5-1.5-3.3.7-3.4 1.5-3.4 1.4 1.5 1.4 3.4zm-.3-5.4h-2.3V.9h2.3zM114.1 25c0 2-.7 3.4-1.4 3.4s-1.5-1.5-1.5-3.3.7-3.4 1.5-3.4 1.4 1.5 1.4 3.4zm-.3-5.4h-2.3V.9h2.3zM118.5 25c0 2-.7 3.4-1.4 3.4s-1.5-1.5-1.5-3.3.7-3.4 1.5-3.4 1.4 1.5 1.4 3.4zm-.3-5.4H116V.9h2.3z"/></svg>
