<svg xmlns="http://www.w3.org/2000/svg" viewBox="0 0 69.6 18.9"><path d="M2.4 6.6a1.2 1.2 0 0 0 .3.9 2.7 2.7 0 0 1-1.4.8 3.7 3.7 0 0 1-.4 0l-.4-.1A2.9 2.9 0 0 1 0 6.5zM8.6 0a3.1 3.1 0 0 0-1.4 1.8A80.9 80.9 0 0 0 5.7 6 3.4 3.4 0 0 1 4 7.6a8.8 8.8 0 0 1-1.9.6 3 3 0 0 0 .8-.6c2-2.6 1.2-6 3-7.4zm-3 14.3a5.4 5.4 0 0 0 1.5 2 1.8 1.8 0 0 0 1 .5 4.6 4.6 0 0 0 1.3-.2 9.9 9.9 0 0 1-3 1.8h-.2a3.5 3.5 0 0 1-2.7-1.6 9 9 0 0 1-.8-1.5zm3.5-7.9c2.7 2.1 2.2 4.4 5.7 5.3h-1A5.7 5.7 0 0 1 9.5 10L7.5 7.6a10.7 10.7 0 0 0-1.4-1.8l.1-.5a6.8 6.8 0 0 1 2.9 1.1zM16.5 8c-.7-4.4-3.7-4.5-6.2-4.1l-3.8.8a4.3 4.3 0 0 1 .2-.5l.6-2a21 21 0 0 1 4.7-.8c4.2 0 5.3 2.4 4.5 6.6zM7.1 18.4A11.2 11.2 0 0 0 9 17.2a12.7 12.7 0 0 0 4-5.3h.9a8.4 8.4 0 0 0 1.4 0c-1.7 3.4-4.4 6.2-8.2 6.5zm7-14.1a3 3 0 0 1 .7.4 5.4 5.4 0 0 1 1.6 3.6v.1a12.5 12.5 0 0 1-1 3.2 4.6 4.6 0 0 1-2-.8 19.6 19.6 0 0 0 .7-3.2 11.3 11.3 0 0 0 0-3.2zM22.7 3.8l-1.6.7.6-.8a8.1 8.1 0 0 1 1.9-.3l-1 .4zM25 15a8.4 8.4 0 0 0 1.3 1.2 5.6 5.6 0 0 0 3.2 1.3h.5a17.7 17.7 0 0 1-2 1 12.7 12.7 0 0 1-4.5-1 18.8 18.8 0 0 1-1.9-.9zm3.2-13.3a15.6 15.6 0 0 1 2.5 1 2.5 2.5 0 0 1-.8.6 9.4 9.4 0 0 1-2.6.8 2.9 2.9 0 0 1-.8-.3c-.3 0-.7-.2-1.1-.4a5.2 5.2 0 0 0-1.6-.2 9 9 0 0 0-2 .3l1.7-1.7a13.1 13.1 0 0 1 2.7-.3 7.9 7.9 0 0 1 2 .2zm6 1c-.6.4-2.8 1.7-4.2 1.7h-.4a7.5 7.5 0 0 1-1.9-.2 8.3 8.3 0 0 0 2.3-.7 3.2 3.2 0 0 0 1.5-1.9zm4.6 3a23.8 23.8 0 0 0-2.1 2.7 5.7 5.7 0 0 0-.6 2.7 5.2 5.2 0 0 1-.2 1.5 7.8 7.8 0 0 1-3.8 4.6 10.7 10.7 0 0 1-3.4 1.2 12 12 0 0 0 2.6-1.7 5.8 5.8 0 0 0 1.3-1.7 5.3 5.3 0 0 0 .6-2.2 8.5 8.5 0 0 1 2.8-6.5zM46 16a6 6 0 0 0 .5 1c.5.7 1 1 1.5 1a3.3 3.3 0 0 0 .4 0 8.9 8.9 0 0 1-2 .8l-.1.1a2.4 2.4 0 0 1-1.9-1.1 4.3 4.3 0 0 1-.5-1zm0-9.7a6.4 6.4 0 0 0-.2 1.1 8.2 8.2 0 0 0 .3 2.6 1.9 1.9 0 0 0 .7 1 1.4 1.4 0 0 0 .7.3h.1a1.3 1.3 0 0 1-1.1.8.1.1 0 0 1-.1 0c-.7 0-1.9-.8-2.2-2.4a4.5 4.5 0 0 1 0-2.2 3.8 3.8 0 0 1 .3-.8zm1.7 3.8a2.6 2.6 0 0 0 .2.5 1.3 1.3 0 0 1-.2.4h-.1a1.3 1.3 0 0 1-1.2-.6zm8.1-.6a8.1 8.1 0 0 1-.3 2.2 9.5 9.5 0 0 1-2.6 4.4c-2.3 2.3-3.8 2.6-5.9 2.7A10 10 0 0 0 49 18a11.4 11.4 0 0 0 1.9-1.4 10 10 0 0 0 2.4-3.4 13 13 0 0 0 .6-4.8zm-6.4-3.2v1.2a8.2 8.2 0 0 0 .2 2.5 1.7 1.7 0 0 0 .7 1 1.4 1.4 0 0 0 .8.3 1.3 1.3 0 0 1-1.1.7c-.8 0-2-.8-2.3-2.4a4.5 4.5 0 0 1 0-2.1 3.8 3.8 0 0 1 .3-.8zm2 3.8a2.1 2.1 0 0 1-.2 1h-.1a1.3 1.3 0 0 1-1.2-.7zM61.5 5.3l8.1-1.8v9.1a2.4 2.4 0 0 1-2.5 2.4c-.7 0-1.3-.3-1.3-1 0-1 1.2-2 2.4-2a2 2 0 0 1 .8.2V7.5L62 9v5.4a2.4 2.4 0 0 1-2.5 2.4c-.7 0-1.3-.3-1.3-1 0-1 1.2-2 2.4-2a2 2 0 0 1 .8.3zm7.6.8V5L62 6.6v1z"/></svg>
